<svg width="21" height="20" viewBox="0 0 21 20" fill="none" xmlns="http://www.w3.org/2000/svg">
<path d="M20.1727 8.16138C20.1558 8.06742 20.0734 8 19.9779 8H10.5367C10.4262 8 10.3367 8.08954 10.3367 8.2V11.8C10.3367 11.9105 10.4262 12 10.5367 12H15.9882C15.1637 14.3285 12.9482 16 10.3367 16C7.02317 16 4.33667 13.3135 4.33667 10C4.33667 6.6865 7.02317 4 10.3367 4C11.7984 4 13.134 4.52697 14.1743 5.39631C14.2556 5.46423 14.3757 5.461 14.4506 5.3861L16.9992 2.83749C17.0792 2.75743 17.0771 2.62679 16.9927 2.55131C15.2243 0.969256 12.8962 0 10.3367 0C4.81417 0 0.33667 4.4775 0.33667 10C0.33667 15.5225 4.81417 20 10.3367 20C15.8592 20 20.3367 15.5225 20.3367 10C20.3367 9.38598 20.2788 8.75058 20.1727 8.16138Z" fill="white"/>
</svg>
