<svg width="92" height="92" viewBox="0 0 92 92" fill="none" xmlns="http://www.w3.org/2000/svg">
<path d="M28.198 12.8478C31.335 10.472 35.1647 9.19055 39.1 9.2C40.459 9.16952 41.8038 9.48234 43.0099 10.1095C44.216 10.7367 45.2444 11.6579 46 12.788C46.7555 11.6579 47.7839 10.7367 48.99 10.1095C50.1961 9.48234 51.5409 9.16952 52.9 9.2C56.8352 9.19055 60.6649 10.472 63.8019 12.8478C66.2169 14.7246 68.0799 17.3236 68.7377 20.4654C70.2465 20.5804 71.6265 21.206 72.7857 22.149C74.5429 23.575 75.8218 25.714 76.6268 27.9772C77.8872 31.4962 78.2276 35.9812 76.9212 39.7992C77.2524 39.9556 77.5789 40.1396 77.8963 40.3512C79.1613 41.193 80.1228 42.3982 80.8312 43.8196C82.225 46.6026 82.7999 50.485 82.7999 55.2C82.7999 60.4486 80.799 63.9722 78.2598 66.148C76.8556 67.3519 75.1985 68.2245 73.4113 68.701C72.9513 71.2678 71.6634 74.2394 69.644 76.7602C67.022 80.0492 62.9556 82.8 57.5 82.8C53.176 82.8 49.7352 80.408 47.4996 78.062C46.9651 77.5019 46.4643 76.9105 46 76.291C45.5356 76.9105 45.0349 77.5019 44.5003 78.062C42.2647 80.408 38.8286 82.8 34.5 82.8C29.0444 82.8 24.9826 80.0492 22.356 76.7602C20.4688 74.4168 19.1763 71.6518 18.5886 68.701C16.8014 68.2245 15.1443 67.3519 13.7402 66.148C11.201 63.9722 9.19995 60.444 9.19995 55.2C9.19995 50.485 9.77955 46.598 11.1688 43.8196C11.8271 42.4256 12.8389 41.2283 14.1036 40.3466C14.4142 40.1409 14.7403 39.9595 15.0788 39.8038C13.7724 35.9766 14.1128 31.4962 15.3732 27.9772C16.1782 25.714 17.457 23.575 19.2142 22.149C20.3734 21.206 21.7534 20.585 23.2622 20.4654C23.9246 17.3236 25.783 14.7246 28.198 12.8478ZM43.7 20.7V20.654L43.6908 20.424C43.623 19.2248 43.3845 18.0414 42.9823 16.9096C42.6961 16.0552 42.2086 15.2821 41.5609 14.6556C40.8815 14.0639 39.9999 13.7574 39.1 13.8C36.1879 13.79 33.352 14.7299 31.0224 16.4772C28.888 18.1378 27.6 20.3872 27.6 23C27.5997 23.3642 27.5129 23.7232 27.3467 24.0474C27.1806 24.3715 26.9398 24.6516 26.6443 24.8645C26.3488 25.0774 26.0069 25.217 25.6468 25.272C25.2867 25.3269 24.9187 25.2955 24.5732 25.1804C23.7084 24.8952 22.9356 25.0562 22.1122 25.7186C21.2106 26.4546 20.332 27.761 19.7018 29.5228C18.4184 33.12 18.5518 37.4762 20.3136 40.1258C20.5652 40.5031 20.6996 40.9465 20.7 41.4H24.15C26.8949 41.4 29.5275 42.4904 31.4685 44.4314C33.4095 46.3724 34.5 49.005 34.5 51.75V53.291C36.0345 53.8336 37.3279 54.9012 38.1515 56.3051C38.9751 57.709 39.2758 59.3589 39.0006 60.9632C38.7253 62.5674 37.8918 64.0227 36.6474 65.0718C35.4029 66.121 33.8276 66.6964 32.2 66.6964C30.5723 66.6964 28.997 66.121 27.7525 65.0718C26.5081 64.0227 25.6746 62.5674 25.3993 60.9632C25.1241 59.3589 25.4248 57.709 26.2484 56.3051C27.072 54.9012 28.3654 53.8336 29.9 53.291V51.75C29.9 48.576 27.324 46 24.15 46H16.1C15.825 45.9995 15.5523 45.9497 15.295 45.8528L15.2812 45.8804C14.3704 47.6974 13.8 50.715 13.8 55.2C13.8 59.1514 15.249 61.3778 16.7348 62.652C18.331 64.0228 20.102 64.4 20.7 64.4C21.3099 64.4 21.895 64.6423 22.3263 65.0737C22.7576 65.505 23 66.09 23 66.7C23 68.3928 23.92 71.3506 25.944 73.8898C27.9174 76.3508 30.7556 78.2 34.5 78.2C37.076 78.2 39.3851 76.7602 41.1699 74.888C42.0485 73.968 42.734 73.0158 43.1802 72.2338C43.3833 71.887 43.5571 71.5239 43.7 71.1482V34.5H38.709C38.1664 36.0346 37.0988 37.328 35.6948 38.1515C34.2909 38.9751 32.641 39.2759 31.0368 39.0006C29.4325 38.7254 27.9772 37.8919 26.9281 36.6474C25.879 35.403 25.3036 33.8277 25.3036 32.2C25.3036 30.5723 25.879 28.997 26.9281 27.7526C27.9772 26.5081 29.4325 25.6746 31.0368 25.3994C32.641 25.1241 34.2909 25.4249 35.6948 26.2484C37.0988 27.072 38.1664 28.3654 38.709 29.9H43.7V20.7ZM48.3 66.6954V71.1436C48.4428 71.5193 48.6167 71.8824 48.8197 72.2292C49.2705 73.0112 49.9513 73.9634 50.8253 74.8834C52.6147 76.7556 54.9286 78.1954 57.5 78.1954C61.2444 78.1954 64.0825 76.3462 66.0559 73.8852C68.0799 71.346 68.9999 68.3882 68.9999 66.6954C68.9999 66.0854 69.2423 65.5004 69.6736 65.0691C70.1049 64.6377 70.69 64.3954 71.2999 64.3954C71.8979 64.3954 73.6689 64.0182 75.2651 62.6474C76.7509 61.3732 78.1999 59.1468 78.1999 55.1954C78.1999 50.7104 77.6249 47.6974 76.7187 45.8758C76.4156 45.1975 75.9397 44.6106 75.3388 44.1738C74.8208 43.8427 74.2142 43.6774 73.5999 43.7C73.1839 43.6998 72.7757 43.5867 72.4189 43.3729C72.062 43.159 71.7698 42.8524 71.5735 42.4856C71.3771 42.1188 71.2839 41.7057 71.3038 41.2901C71.3236 40.8745 71.4559 40.4722 71.6863 40.1258C73.4527 37.4762 73.5815 33.12 72.2981 29.5228C71.6679 27.761 70.7893 26.45 69.8877 25.7186C69.0643 25.0562 68.2915 24.8906 67.4267 25.1804C67.0812 25.2955 66.7132 25.3269 66.3531 25.272C65.993 25.217 65.6511 25.0774 65.3556 24.8645C65.0601 24.6516 64.8193 24.3715 64.6532 24.0474C64.487 23.7232 64.4002 23.3642 64.4 23C64.4 20.3872 63.112 18.1378 60.973 16.4772C58.6446 14.7309 55.8104 13.791 52.9 13.8C52 13.7574 51.1184 14.0639 50.439 14.6556C49.7894 15.2814 49.3002 16.0546 49.0129 16.9096C48.575 18.1111 48.3342 19.3756 48.3 20.654V62.1H51.75C54.924 62.1 57.5 59.524 57.5 56.35V47.909C55.9654 47.3664 54.672 46.2988 53.8484 44.8949C53.0248 43.4909 52.7241 41.8411 52.9993 40.2368C53.2746 38.6326 54.1081 37.1773 55.3525 36.1282C56.597 35.079 58.1723 34.5036 59.8 34.5036C61.4276 34.5036 63.0029 35.079 64.2474 36.1282C65.4918 37.1773 66.3253 38.6326 66.6006 40.2368C66.8758 41.8411 66.5751 43.4909 65.7515 44.8949C64.9279 46.2988 63.6345 47.3664 62.1 47.909V56.35C62.1 59.095 61.0095 61.7276 59.0685 63.6686C57.1275 65.6096 54.4949 66.7 51.75 66.7H48.3V66.6954ZM29.9 32.2C29.9 32.81 30.1423 33.395 30.5736 33.8263C31.0049 34.2577 31.59 34.5 32.2 34.5C32.8099 34.5 33.395 34.2577 33.8263 33.8263C34.2576 33.395 34.5 32.81 34.5 32.2C34.5 31.59 34.2576 31.005 33.8263 30.5737C33.395 30.1423 32.8099 29.9 32.2 29.9C31.59 29.9 31.0049 30.1423 30.5736 30.5737C30.1423 31.005 29.9 31.59 29.9 32.2ZM59.8 43.7C60.4099 43.7 60.995 43.4577 61.4263 43.0263C61.8576 42.595 62.1 42.01 62.1 41.4C62.1 40.79 61.8576 40.205 61.4263 39.7737C60.995 39.3423 60.4099 39.1 59.8 39.1C59.19 39.1 58.6049 39.3423 58.1736 39.7737C57.7423 40.205 57.5 40.79 57.5 41.4C57.5 42.01 57.7423 42.595 58.1736 43.0263C58.6049 43.4577 59.19 43.7 59.8 43.7ZM32.2 57.5C31.59 57.5 31.0049 57.7423 30.5736 58.1737C30.1423 58.605 29.9 59.19 29.9 59.8C29.9 60.41 30.1423 60.995 30.5736 61.4263C31.0049 61.8577 31.59 62.1 32.2 62.1C32.8099 62.1 33.395 61.8577 33.8263 61.4263C34.2576 60.995 34.5 60.41 34.5 59.8C34.5 59.19 34.2576 58.605 33.8263 58.1737C33.395 57.7423 32.8099 57.5 32.2 57.5Z" fill="white"/>
</svg>
